name rise37.2698peak67.6939fall79.5734.mot
datacolumns 19
datarows 33
range 3.84331800000000 3.89666200000000
endheader
time	ground_force1_vx	ground_force1_vy	ground_force1_vz	ground_force1_px	ground_force1_py	ground_force1_pz	ground_force2_vx	ground_force2_vy	ground_force2_vz	ground_force2_px	ground_force2_py	ground_force2_pz	ground_torque1_x	ground_torque1_y	ground_torque1_z	ground_torque2_x	ground_torque2_y	ground_torque2_z	
3.84331800000000	20.19816600000000	722.57452799999999	39.64947100000000	0.25503600000000	0.00000000000000	0.08548900000000	0.00000000000000	0.00000000000000	0.00000000000000	0.00000000000000	0.00000000000000	0.00000000000000	0.00000000000000	16.92006000000000	0.00000000000000	0.00000000000000	0.00000000000000	0.00000000000000	
3.84498800000000	19.75290700000000	723.28218300000003	39.58243100000000	0.25428100000000	0.00000000000000	0.08541100000000	0.00000000000000	0.00000000000000	0.00000000000000	0.00000000000000	0.00000000000000	0.00000000000000	0.00000000000000	16.91688900000000	0.00000000000000	0.00000000000000	0.00000000000000	0.00000000000000	
3.84666000000000	19.29814600000000	723.99929799999995	39.51795100000000	0.25349700000000	0.00000000000000	0.08533500000000	0.00000000000000	0.00000000000000	0.00000000000000	0.00000000000000	0.00000000000000	0.00000000000000	0.00000000000000	16.91587100000000	0.00000000000000	0.00000000000000	0.00000000000000	0.00000000000000	
3.84831700000000	18.83390800000000	724.72509400000001	39.45602700000000	0.25268000000000	0.00000000000000	0.08526200000000	0.00000000000000	0.00000000000000	0.00000000000000	0.00000000000000	0.00000000000000	0.00000000000000	0.00000000000000	16.91695100000000	0.00000000000000	0.00000000000000	0.00000000000000	0.00000000000000	
3.84998700000000	18.36025200000000	725.45883500000002	39.39665400000000	0.25183300000000	0.00000000000000	0.08519000000000	0.00000000000000	0.00000000000000	0.00000000000000	0.00000000000000	0.00000000000000	0.00000000000000	0.00000000000000	16.92007500000000	0.00000000000000	0.00000000000000	0.00000000000000	0.00000000000000	
3.85166500000000	17.87726500000000	726.19982400000004	39.33983000000000	0.25095300000000	0.00000000000000	0.08512100000000	0.00000000000000	0.00000000000000	0.00000000000000	0.00000000000000	0.00000000000000	0.00000000000000	0.00000000000000	16.92519500000000	0.00000000000000	0.00000000000000	0.00000000000000	0.00000000000000	
3.85332100000000	17.38506200000000	726.94740700000000	39.28555000000000	0.25004100000000	0.00000000000000	0.08505500000000	0.00000000000000	0.00000000000000	0.00000000000000	0.00000000000000	0.00000000000000	0.00000000000000	0.00000000000000	16.93226400000000	0.00000000000000	0.00000000000000	0.00000000000000	0.00000000000000	
3.85498800000000	16.88379000000000	727.70097099999998	39.23381000000000	0.24909700000000	0.00000000000000	0.08499100000000	0.00000000000000	0.00000000000000	0.00000000000000	0.00000000000000	0.00000000000000	0.00000000000000	0.00000000000000	16.94123700000000	0.00000000000000	0.00000000000000	0.00000000000000	0.00000000000000	
3.85666700000000	16.37362100000000	728.45994199999996	39.18460500000000	0.24812000000000	0.00000000000000	0.08492900000000	0.00000000000000	0.00000000000000	0.00000000000000	0.00000000000000	0.00000000000000	0.00000000000000	0.00000000000000	16.95207400000000	0.00000000000000	0.00000000000000	0.00000000000000	0.00000000000000	
3.85832400000000	15.85475600000000	729.22378700000002	39.13793000000000	0.24711300000000	0.00000000000000	0.08486900000000	0.00000000000000	0.00000000000000	0.00000000000000	0.00000000000000	0.00000000000000	0.00000000000000	0.00000000000000	16.96473400000000	0.00000000000000	0.00000000000000	0.00000000000000	0.00000000000000	
3.85998300000000	15.32742300000000	729.99201200000005	39.09377900000000	0.24607400000000	0.00000000000000	0.08481200000000	0.00000000000000	0.00000000000000	0.00000000000000	0.00000000000000	0.00000000000000	0.00000000000000	0.00000000000000	16.97918300000000	0.00000000000000	0.00000000000000	0.00000000000000	0.00000000000000	
3.86166600000000	14.79187600000000	730.76415999999995	39.05214700000000	0.24500600000000	0.00000000000000	0.08475700000000	0.00000000000000	0.00000000000000	0.00000000000000	0.00000000000000	0.00000000000000	0.00000000000000	0.00000000000000	16.99538500000000	0.00000000000000	0.00000000000000	0.00000000000000	0.00000000000000	
3.86332000000000	14.24839200000000	731.53981499999998	39.01302700000000	0.24390800000000	0.00000000000000	0.08470500000000	0.00000000000000	0.00000000000000	0.00000000000000	0.00000000000000	0.00000000000000	0.00000000000000	0.00000000000000	17.01330900000000	0.00000000000000	0.00000000000000	0.00000000000000	0.00000000000000	
3.86498700000000	13.69727400000000	732.31859599999996	38.97641100000000	0.24278300000000	0.00000000000000	0.08465400000000	0.00000000000000	0.00000000000000	0.00000000000000	0.00000000000000	0.00000000000000	0.00000000000000	0.00000000000000	17.03292400000000	0.00000000000000	0.00000000000000	0.00000000000000	0.00000000000000	
3.86666200000000	13.13884500000000	733.10016099999996	38.94229300000000	0.24163000000000	0.00000000000000	0.08460500000000	0.00000000000000	0.00000000000000	0.00000000000000	0.00000000000000	0.00000000000000	0.00000000000000	0.00000000000000	17.05420200000000	0.00000000000000	0.00000000000000	0.00000000000000	0.00000000000000	
3.86832200000000	12.57345200000000	733.88420299999996	38.91066400000000	0.24045300000000	0.00000000000000	0.08455900000000	0.00000000000000	0.00000000000000	0.00000000000000	0.00000000000000	0.00000000000000	0.00000000000000	0.00000000000000	17.07711500000000	0.00000000000000	0.00000000000000	0.00000000000000	0.00000000000000	
3.86998600000000	12.00145900000000	734.67045299999995	38.88151800000000	0.23925100000000	0.00000000000000	0.08451400000000	0.00000000000000	0.00000000000000	0.00000000000000	0.00000000000000	0.00000000000000	0.00000000000000	0.00000000000000	17.10163800000000	0.00000000000000	0.00000000000000	0.00000000000000	0.00000000000000	
3.87166400000000	11.42324900000000	735.45867399999997	38.85484700000000	0.23802800000000	0.00000000000000	0.08447200000000	0.00000000000000	0.00000000000000	0.00000000000000	0.00000000000000	0.00000000000000	0.00000000000000	0.00000000000000	17.12774400000000	0.00000000000000	0.00000000000000	0.00000000000000	0.00000000000000	
3.87332500000000	10.83922400000000	736.24866699999995	38.83064400000000	0.23678500000000	0.00000000000000	0.08443100000000	0.00000000000000	0.00000000000000	0.00000000000000	0.00000000000000	0.00000000000000	0.00000000000000	0.00000000000000	17.15541100000000	0.00000000000000	0.00000000000000	0.00000000000000	0.00000000000000	
3.87498800000000	10.24979800000000	737.04026599999997	38.80890300000000	0.23552300000000	0.00000000000000	0.08439100000000	0.00000000000000	0.00000000000000	0.00000000000000	0.00000000000000	0.00000000000000	0.00000000000000	0.00000000000000	17.18461400000000	0.00000000000000	0.00000000000000	0.00000000000000	0.00000000000000	
3.87666500000000	9.65540000000000	737.83333700000003	38.78962000000000	0.23424400000000	0.00000000000000	0.08435400000000	0.00000000000000	0.00000000000000	0.00000000000000	0.00000000000000	0.00000000000000	0.00000000000000	0.00000000000000	17.21532900000000	0.00000000000000	0.00000000000000	0.00000000000000	0.00000000000000	
3.87832600000000	9.05647100000000	738.62778200000002	38.77279000000000	0.23295200000000	0.00000000000000	0.08431700000000	0.00000000000000	0.00000000000000	0.00000000000000	0.00000000000000	0.00000000000000	0.00000000000000	0.00000000000000	17.24753200000000	0.00000000000000	0.00000000000000	0.00000000000000	0.00000000000000	
3.87999000000000	8.45346100000000	739.42353200000002	38.75841100000000	0.23164700000000	0.00000000000000	0.08428200000000	0.00000000000000	0.00000000000000	0.00000000000000	0.00000000000000	0.00000000000000	0.00000000000000	0.00000000000000	17.28120100000000	0.00000000000000	0.00000000000000	0.00000000000000	0.00000000000000	
3.88166700000000	7.84683100000000	740.22055000000000	38.74648500000000	0.23033200000000	0.00000000000000	0.08424800000000	0.00000000000000	0.00000000000000	0.00000000000000	0.00000000000000	0.00000000000000	0.00000000000000	0.00000000000000	17.31630900000000	0.00000000000000	0.00000000000000	0.00000000000000	0.00000000000000	
3.88331800000000	7.23704600000000	741.01883199999997	38.73701200000000	0.22900900000000	0.00000000000000	0.08421600000000	0.00000000000000	0.00000000000000	0.00000000000000	0.00000000000000	0.00000000000000	0.00000000000000	0.00000000000000	17.35283200000000	0.00000000000000	0.00000000000000	0.00000000000000	0.00000000000000	
3.88499200000000	6.62457600000000	741.81839800000000	38.72999800000000	0.22768100000000	0.00000000000000	0.08418400000000	0.00000000000000	0.00000000000000	0.00000000000000	0.00000000000000	0.00000000000000	0.00000000000000	0.00000000000000	17.39074400000000	0.00000000000000	0.00000000000000	0.00000000000000	0.00000000000000	
3.88666300000000	6.00989500000000	742.61930199999995	38.72545100000000	0.22634800000000	0.00000000000000	0.08415300000000	0.00000000000000	0.00000000000000	0.00000000000000	0.00000000000000	0.00000000000000	0.00000000000000	0.00000000000000	17.43001700000000	0.00000000000000	0.00000000000000	0.00000000000000	0.00000000000000	
3.88832300000000	5.39348000000000	743.42162199999996	38.72338200000000	0.22501500000000	0.00000000000000	0.08412300000000	0.00000000000000	0.00000000000000	0.00000000000000	0.00000000000000	0.00000000000000	0.00000000000000	0.00000000000000	17.47062300000000	0.00000000000000	0.00000000000000	0.00000000000000	0.00000000000000	
3.88999000000000	4.77580500000000	744.22546399999999	38.72380400000000	0.22368100000000	0.00000000000000	0.08409400000000	0.00000000000000	0.00000000000000	0.00000000000000	0.00000000000000	0.00000000000000	0.00000000000000	0.00000000000000	17.51253100000000	0.00000000000000	0.00000000000000	0.00000000000000	0.00000000000000	
3.89166500000000	4.15734400000000	745.03095699999994	38.72673700000000	0.22235100000000	0.00000000000000	0.08406500000000	0.00000000000000	0.00000000000000	0.00000000000000	0.00000000000000	0.00000000000000	0.00000000000000	0.00000000000000	17.55570900000000	0.00000000000000	0.00000000000000	0.00000000000000	0.00000000000000	
3.89332000000000	3.53856600000000	745.83825400000001	38.73220200000000	0.22102600000000	0.00000000000000	0.08403600000000	0.00000000000000	0.00000000000000	0.00000000000000	0.00000000000000	0.00000000000000	0.00000000000000	0.00000000000000	17.60012300000000	0.00000000000000	0.00000000000000	0.00000000000000	0.00000000000000	
3.89498600000000	2.91993700000000	746.64753099999996	38.74022500000000	0.21970700000000	0.00000000000000	0.08400800000000	0.00000000000000	0.00000000000000	0.00000000000000	0.00000000000000	0.00000000000000	0.00000000000000	0.00000000000000	17.64573600000000	0.00000000000000	0.00000000000000	0.00000000000000	0.00000000000000	
3.89666200000000	2.30191600000000	747.45898299999999	38.75083500000000	0.21839600000000	0.00000000000000	0.08398000000000	0.00000000000000	0.00000000000000	0.00000000000000	0.00000000000000	0.00000000000000	0.00000000000000	0.00000000000000	17.69251000000000	0.00000000000000	0.00000000000000	0.00000000000000	0.00000000000000	
